<svg width="1em" height="1em" viewBox="0 0 21 20" fill="none" xmlns="http://www.w3.org/2000/svg" id="84"><g clip-path="url(#prefix__clip0_5977_1093)"><path d="M20.433 9.696a10.98 10.98 0 01-.087 1.555 9.834 9.834 0 01-.336 1.527c-.034.122-.08.245-.12.375l-.068.184-.074.184c-.047.122-.094.245-.148.361l-.16.355c-.23.47-.491.92-.78 1.343-.295.43-.618.824-.967 1.2-.356.374-.732.722-1.128 1.036-.403.313-.826.6-1.27.845a9.37 9.37 0 01-1.376.64 9.961 9.961 0 01-2.935.62 10.78 10.78 0 01-1.484-.026 9.878 9.878 0 01-4.157-1.377 9.688 9.688 0 01-1.188-.846c-.37-.313-.726-.64-1.048-.995A10.292 10.292 0 01.97 12.962a9.974 9.974 0 01-.47-2.809c-.006-.47.014-.94.067-1.411.06-.47.141-.934.262-1.391a9.895 9.895 0 015.13-6.327 10.7 10.7 0 011.29-.531L7.586.39C7.7.356 7.815.329 7.922.3l.168-.04.168-.034c.114-.02.228-.048.342-.068.457-.082.927-.13 1.39-.157h.034a2.019 2.019 0 012.102 1.916c.06 1.11-.779 2.058-1.874 2.12-.08.007-.168 0-.248 0a5.098 5.098 0 00-3.163.845 5.497 5.497 0 00-2.089 2.604 4.89 4.89 0 00-.242.812 5.758 5.758 0 00-.107 1.677 5.36 5.36 0 001.8 3.58c.201.17.416.333.638.476.221.143.456.26.691.368.236.102.484.184.726.252.248.069.497.11.745.137.249.027.504.034.752.027.249-.014.497-.04.74-.089a4.872 4.872 0 001.37-.47 5.083 5.083 0 002.356-2.543 5.73 5.73 0 00.235-.648l.047-.163c.014-.055.027-.116.04-.17l.02-.082.014-.089c.007-.054.027-.116.034-.17.033-.232.053-.464.074-.696l.013-.17c.12-1.61 1.498-2.809 3.082-2.693 1.485.109 2.626 1.37 2.653 2.863z" fill="#468EF1"></path><path d="M15.697 5.828a2.492 2.492 0 100-4.984 2.492 2.492 0 000 4.984z" fill="#FF6BC1"></path></g><defs><clipPath id="prefix__clip0_5977_1093"><path fill="#fff" transform="translate(.5)" d="M0 0h19.934v19.936H0z"></path></clipPath></defs></svg>