<svg xmlns="http://www.w3.org/2000/svg" viewBox="0 0 200 60" fill="white">
  <path d="M88.42 33.5c-8.08 5.95-19.8 9.12-29.88 9.12-14.14 0-26.87-5.23-36.5-13.93-.76-.68-.08-1.61.83-1.08 10.41 6.06 23.28 9.71 36.58 9.71 8.97 0 18.83-1.86 27.91-5.71 1.37-.58 2.51.9 1.06 1.89z"/>
  <path d="M91.52 29.94c-1.03-1.32-6.83-.63-9.43-.32-.79.1-1.51-.48-.33-1.1 4.62-3.25 12.2-2.31 13.08-1.22.88 1.09-.23 8.67-4.56 12.29-.67.56-1.3.26-.1-1.45.98-2.37 3.16-7.68 2.34-8.2z"/>
  <path d="M82.13 5.24v-2.4c0-.36.27-.61.61-.61h10.82c.35 0 .62.25.62.61v2.06c-.01.35-.3.8-.82 1.52l-5.61 8.01c2.08-.05 4.28.26 6.17 1.32.43.24.54.59.58.93v2.57c0 .35-.39.77-.8.55-3.35-1.76-7.8-1.95-11.5.01-.37.21-.76-.2-.76-.55v-2.44c0-.39.01-1.07.4-1.67l6.5-9.32h-5.65c-.35 0-.62-.24-.62-.6h.06z"/>
  <path d="M30.85 23.02h-3.27c-.31-.02-.56-.24-.58-.54V3.21c0-.33.27-.59.61-.59h3.05c.31.02.57.26.59.57v2.54h.06c.79-2.39 2.27-3.5 4.27-3.5 2.03 0 3.3 1.11 4.21 3.5.79-2.39 2.59-3.5 4.48-3.5 1.36 0 2.85.56 3.76 1.82.97 1.39.77 3.41.77 5.18v13.21c0 .33-.27.59-.61.59h-3.27c-.32-.02-.58-.26-.58-.59V9.79c0-.7.06-2.44-.09-3.1-.24-1.11-.97-1.42-1.91-1.42-.79 0-1.61.53-1.94 1.37-.33.84-.3 2.25-.3 3.15v13.15c0 .33-.27.59-.61.59h-3.27c-.32-.02-.58-.26-.58-.59l-.01-13.15c0-2.77.45-6.84-2-6.84-2.48 0-2.39 4.03-2.39 6.84v13.15c0 .33-.27.59-.61.59zm52.38-19.8c4.85 0 7.48 4.17 7.48 9.47 0 5.12-2.9 9.18-7.48 9.18-4.76 0-7.36-4.17-7.36-9.37 0-5.23 2.63-9.28 7.36-9.28zm.03 3.41c-2.39 0-2.54 3.26-2.54 5.29 0 2.04-.03 6.38 2.51 6.38 2.51 0 2.63-3.5 2.63-5.64 0-1.4-.06-3.08-.48-4.42-.36-1.16-1.09-1.61-2.12-1.61zm13.3 16.39h-3.26c-.32-.02-.58-.26-.58-.59l-.01-19.22c.03-.3.29-.52.61-.52h3.04c.28.01.51.2.57.47v2.96h.06c.91-2.58 2.18-3.82 4.69-3.82 1.54 0 3.05.56 4.03 2.07.91 1.4.91 3.75.91 5.43v13.23c-.03.3-.3.52-.61.52h-3.28c-.29-.02-.53-.23-.57-.52V9.37c0-2.67.3-6.56-2.97-6.56-.61 0-1.18.42-1.51 1.05-.42.84-.48 1.68-.48 2.63v15.94c-.01.33-.28.59-.64.59zm-42.78-.33c-.21.19-.52.2-.76.07-1.07-.89-1.26-1.3-1.85-2.14-1.77 1.8-3.02 2.33-5.31 2.33-2.71 0-4.82-1.68-4.82-5.03 0-2.62 1.42-4.4 3.44-5.27 1.75-.78 4.19-.92 6.06-1.13v-.42c0-.78.06-1.7-.4-2.37-.39-.59-1.15-.84-1.82-.84-1.24 0-2.34.63-2.61 1.95-.06.29-.27.58-.57.6l-3.16-.34c-.27-.06-.57-.28-.49-.7.73-3.85 4.21-5.01 7.33-5.01 1.6 0 3.68.43 4.94 1.63 1.6 1.49 1.45 3.47 1.45 5.63v5.1c0 1.54.64 2.21 1.24 3.04.21.3.26.65-.01.87-.68.57-1.88 1.61-2.54 2.2l-.13-.08v-.08zm-3.35-8.09v-.73c-2.61 0-5.37.56-5.37 3.7 0 1.59.83 2.67 2.24 2.67.65 0 1.24-.4 1.61-.84.49-.59.52-1.17.52-1.93v-2.87z"/>
</svg>

