<svg xmlns="http://www.w3.org/2000/svg" viewBox="0 0 200 60" fill="white">
  <path d="M44.71 22.21c-2.24-4.38-5.98-6.57-11.23-6.57-3.37 0-6.26 1.09-8.65 3.28-2.4 2.19-3.59 4.87-3.59 8.05 0 3.37 1.19 6.13 3.59 8.28 2.39 2.15 5.28 3.23 8.65 3.23 5.25 0 8.99-2.19 11.23-6.57v6.16h8.41V16.05h-8.41v6.16zm-7.89 10.02c-1.63 0-3.01-.57-4.14-1.72-1.13-1.14-1.69-2.53-1.69-4.15 0-1.63.56-3.01 1.69-4.15 1.13-1.14 2.51-1.72 4.14-1.72 1.63 0 3.01.57 4.14 1.72 1.13 1.14 1.69 2.52 1.69 4.15 0 1.62-.56 3.01-1.69 4.15-1.13 1.14-2.51 1.72-4.14 1.72z"/>
  <path d="M86.51 22.21c-2.24-4.38-5.98-6.57-11.23-6.57-3.37 0-6.26 1.09-8.65 3.28-2.4 2.19-3.59 4.87-3.59 8.05 0 3.37 1.19 6.13 3.59 8.28 2.39 2.15 5.28 3.23 8.65 3.23 5.25 0 8.99-2.19 11.23-6.57v6.16h8.41V16.05h-8.41v6.16zm-7.89 10.02c-1.63 0-3.01-.57-4.14-1.72-1.13-1.14-1.69-2.53-1.69-4.15 0-1.63.56-3.01 1.69-4.15 1.13-1.14 2.51-1.72 4.14-1.72 1.63 0 3.01.57 4.14 1.72 1.13 1.14 1.69 2.52 1.69 4.15 0 1.62-.56 3.01-1.69 4.15-1.13 1.14-2.51 1.72-4.14 1.72z"/>
  <path d="M119.16 15.64c-3.62 0-6.62 1.19-8.99 3.59v-3.18h-8.41v22.02h8.41V26.96c0-1.62.52-2.99 1.55-4.11 1.04-1.11 2.3-1.67 3.79-1.67 1.49 0 2.74.56 3.77 1.67 1.02 1.11 1.53 2.49 1.53 4.11v11.11h8.41V25.82c0-3.37-1.02-6.05-3.05-8.05-2.04-1.99-4.55-2.99-7.54-2.99-.15 0-.29.01-.44.02-.14.01-.28.02-.42.03h-.61z"/>
  <path d="M160.31 16.05v11.71c0 1.63-.52 3.01-1.55 4.15-1.04 1.14-2.3 1.72-3.79 1.72-1.49 0-2.74-.57-3.77-1.72-1.02-1.14-1.53-2.52-1.53-4.15V16.05h-8.41v12.14c0 3.37 1.02 6.05 3.05 8.05 2.04 1.99 4.55 2.99 7.54 2.99h1.06c3.62 0 6.62-1.19 8.99-3.59v3.18h8.41V16.05h-8.41v-.01h-1.59z"/>
  <path d="M10.95 24.86c0 3.29 1.23 6.11 3.68 8.47 2.45 2.36 5.42 3.54 8.91 3.54 2.04 0 3.95-.44 5.73-1.32 1.78-.88 3.24-2.08 4.39-3.59v4.11h8.56V16.05h-8.56v4.11c-1.15-1.51-2.61-2.71-4.39-3.59-1.78-.88-3.69-1.32-5.73-1.32-3.49 0-6.46 1.18-8.91 3.54-2.45 2.36-3.68 5.18-3.68 8.47v.6zm8.56-.6c0-1.63.56-3.01 1.69-4.15 1.13-1.14 2.51-1.72 4.14-1.72s3.01.57 4.14 1.72c1.13 1.14 1.69 2.52 1.69 4.15 0 1.62-.56 3.01-1.69 4.15-1.13 1.14-2.51 1.72-4.14 1.72s-3.01-.57-4.14-1.72c-1.13-1.14-1.69-2.53-1.69-4.15z"/>
</svg>

