<svg xmlns="http://www.w3.org/2000/svg" viewBox="0 0 184 40" fill="white">
  <path d="M112.35 26.84h-2.77v-13.2h2.77v9.53l6.53-9.53h3.41v13.2h-2.77v-9.53l-6.53 9.53h-.64zm-13.89 0v-10.61h-3.52v-2.59h9.81v2.59h-3.52v10.61h-2.77zm-5.03-6.6c0 4.11-3.03 6.87-7.39 6.87-4.35 0-7.39-2.76-7.39-6.87s3.03-6.87 7.39-6.87c4.36 0 7.39 2.76 7.39 6.87zm-2.84 0c0-2.76-1.71-4.42-4.55-4.42s-4.55 1.66-4.55 4.42 1.71 4.42 4.55 4.42 4.55-1.66 4.55-4.42zm-14.98 6.6h-2.77v-13.2h2.77v13.2zm-5.1 0v-13.2h2.77v5.39c0 .77-.05 1.54-.1 2.31h.08c.38-.82.87-1.54 1.47-2.16l4.29-5.54h3.31l-6.02 7.65 6.43 5.55h-3.54l-6.02-5.26v5.26h-2.67zm-5.52-6.76c0-.43-.02-.82-.05-1.21h-.08c-.48 1.01-1.14 1.88-1.97 2.61l-5.29 4.55c-.92.79-2.12 1.21-3.36 1.21-.72 0-1.42-.14-2.08-.43-.66-.28-1.26-.68-1.77-1.19-.51-.51-.92-1.11-1.21-1.77-.29-.66-.43-1.36-.43-2.08 0-1.24.42-2.44 1.21-3.36l4.55-5.29c.72-.83 1.6-1.49 2.61-1.97-.39-.02-.78-.05-1.21-.05h-7.5v-2.45h12.4c.43 0 .82.02 1.21.05h.08c-.48-1.01-1.14-1.88-1.97-2.61l-5.29-4.55c-.92-.79-2.12-1.21-3.36-1.21-.72 0-1.42.14-2.08.43-.66.28-1.26.68-1.77 1.19-.51.51-.92 1.11-1.21 1.77-.29.66-.43 1.36-.43 2.08 0 1.24.42 2.44 1.21 3.36l4.55 5.29c.72.83 1.6 1.49 2.61 1.97-.39.02-.78.05-1.21.05h-7.5v2.45h12.4z"/>
  <path d="M0 0h18.67v18.67H0V0zm0 21.33h18.67V40H0V21.33zM21.33 0H40v18.67H21.33V0zm0 21.33H40V40H21.33V21.33z"/>
</svg>

