<svg xmlns="http://www.w3.org/2000/svg" viewBox="0 0 200 60" fill="white">
  <path d="M31.19 11.88c-.07-.58-.56-.85-1.01-.87-.45-.02-9.87-.04-9.87-.04s-5.6-5.44-6.26-6.1c-.66-.66-1.94-.47-2.44-.31 0 0-1.24.38-3.27 1.01-.4-1.26-1.11-2.79-2.36-4.25-3.06-3.65-7.49-5.26-11.11-4.57-3.62.69-5.45 3.33-6.01 5.28-.56 1.95-.7 6.37 1.94 11.31-1.66.75-2.84 1.26-2.97 1.31-3.39 1.07-3.49 1.17-3.94 4.38-.34 2.43-9.23 71.07-9.23 71.07l66.79 11.56 27.69-6.86s-16.66-108.28-16.73-108.87zm-15.08-3.71c-1.37.43-2.9.91-4.54 1.42v-1.08c0-2.11-.28-3.8-.73-5.11 2.74.32 4.37 2.59 5.27 4.77zm-7.74 2.42c-2.83.89-5.94 1.87-9.01 2.84.88-3.37 2.54-6.73 4.64-8.95.51-.54 1.21-1.14 2.02-1.62 1.02 2.15 1.58 4.68 1.58 7.73h.77zm-4.78-12.15c.64 0 1.26.13 1.84.39-2.45.91-4.73 3.24-6.17 6.88-.93-1.88-1.64-4.09-1.64-6.1 0-.15.01-.31.02-.47 1.09-.47 2.53-.7 3.95-.7z"/>
  <path d="M30.18 11.01c-.45-.02-9.87-.04-9.87-.04s-5.6-5.44-6.26-6.1c-.23-.23-.54-.34-.86-.39l-2.27 55.53 27.69-6.86s-16.66-108.28-16.73-108.87c-.07-.58-.56-.85-1.01-.87.03 0 9.31-.4 9.31-.4z"/>
  <path d="M68.71 19.35l-3.26-.85c0-.01-.02-.48-.05-1.33-.03-.85-.08-2.05-.15-3.35l4.09.84-.63 4.69zm-5.89-14.61c1.18.06 1.93.39 2.36.76.71.61.73 1.45.62 2.03l-.35 5.93-3.87-.84.06-6.21c.02-1.26.15-1.64.76-1.64.12-.01.24-.02.42-.03zm8.26 15.64l-.75 5.59-2.24-.47.84-6.21 2.15.45v.64zm-5.89 5.12l-.84 6.21-2.24-.47.84-6.21 2.24.47zm-.91 12.42l-2.24-.47.84-6.21 2.24.47-.84 6.21zm12.8-27.45c-.04-.3-.14-.55-.3-.74-.25-.3-.61-.44-1.08-.42-.19 0-.39.03-.59.08l-4.5-.95c-1.29-.12-2.29.19-2.98.91-.69.72-1.06 1.82-1.1 3.28l-.08 6.86-4.48-.97c-.06-.43-.26-.79-.59-1.08-.42-.37-1.01-.51-1.77-.43-.76.08-1.25.38-1.46.88-.21.51-.22 1.08-.03 1.72l.48 2.87-3.26-.7-.63 4.69 3.26.7-.91 6.79-3.26-.7-.63 4.69 3.26.7-.91 6.79-3.26-.7-.63 4.69 3.26.7-.91 6.79-3.26-.7-.63 4.69 3.26.7-.42 3.13c-.08.58.06 1.03.41 1.35.35.32.84.51 1.46.58l4.5.95c.19.04.38.06.56.06.38 0 .72-.08 1.01-.25.43-.25.72-.66.87-1.22l.42-3.13 2.24.47.91-6.79-2.24-.47.84-6.21 2.24.47.63-4.69-2.24-.47.84-6.21 2.24.47.63-4.69-2.24-.47.35-5.93c.12-2.05-.08-3.6-.59-4.64z"/>
</svg>

